<svg xmlns="http://www.w3.org/2000/svg" viewBox="0 0 512 512"><style>.a{fill:#C6CACF;}.b{fill:#FFF;}.c{fill:#55606E;}</style><path d="M100.6 0c-14.1 0-25.6 11.5-25.6 25.6v460.8c0 14.1 11.5 25.6 25.6 25.6h375.5c14.1 0 25.6-11.5 25.6-25.6V85.3L416.4 0H100.6z" fill="#ECEDEF"/><path d="M442 85.3h59.7L416.4 0v59.7C416.4 73.9 427.8 85.3 442 85.3z" fill="#D9DCDF"/><path d="M399.3 42.7H75v153.6h324.3c4.7 0 8.5-3.8 8.5-8.5V51.2C407.8 46.5 404 42.7 399.3 42.7z" class="a"/><path d="M382.2 179.2H18.8c-7.6 0-11.4-9.2-6-14.6L75 102.4 12.8 40.2C7.4 34.8 11.2 25.6 18.8 25.6h363.4c4.7 0 8.5 3.8 8.5 8.5v136.5C390.8 175.4 387 179.2 382.2 179.2z" fill="#DB6B5E"/><path d="M186 93.9c4.7 0 8.5-3.8 8.5-8.5s-3.8-8.5-8.5-8.5h-34.1c-4.7 0-8.5 3.8-8.5 8.5v51.2c0 4.7 3.8 8.5 8.5 8.5h34.1c4.7 0 8.5-3.8 8.5-8.5S190.7 128 186 128h-25.6v-8.5h8.5c4.7 0 8.5-3.8 8.5-8.5s-3.8-8.5-8.5-8.5h-8.5v-8.5H186z" class="b"/><path d="M305.4 128h-25.6v-8.5h8.5c4.7 0 8.5-3.8 8.5-8.5s-3.8-8.5-8.5-8.5h-8.5v-8.5h25.6c4.7 0 8.5-3.8 8.5-8.5s-3.8-8.5-8.5-8.5h-34.1c-4.7 0-8.5 3.8-8.5 8.5v51.2c0 4.7 3.8 8.5 8.5 8.5h34.1c4.7 0 8.5-3.8 8.5-8.5S310.2 128 305.4 128z" class="b"/><path d="M250.4 78.2c-3.9-2.6-9.2-1.6-11.8 2.4l-10 15 -10-14.9c-2.6-3.9-7.9-5-11.8-2.4 -3.9 2.6-5 7.9-2.4 11.8l13.9 20.9 -13.9 20.9c-2.4 3.6-1.7 8.6 1.7 11.3 3.9 3.2 9.8 2.3 12.5-1.8l10-14.9 10 15c2.8 4.2 8.7 5 12.5 1.8 3.3-2.7 4-7.7 1.7-11.3l-13.9-20.9 13.9-20.9C255.4 86.1 254.4 80.8 250.4 78.2z" class="b"/><path d="M407.8 452.3H168.9c-9.4 0-17.1-7.6-17.1-17.1V256c0-9.4 7.6-17.1 17.1-17.1h238.9c9.4 0 17.1 7.6 17.1 17.1v179.2C424.9 444.6 417.3 452.3 407.8 452.3z" class="a"/><path d="M177.4 435.2V256c0-9.4 7.6-17.1 17.1-17.1h-25.6c-9.4 0-17.1 7.6-17.1 17.1v179.2c0 9.4 7.6 17.1 17.1 17.1h25.6C185.1 452.3 177.4 444.6 177.4 435.2z" fill="#B3B9BF"/><path d="M424.9 256c0-9.4-7.6-17.1-17.1-17.1H168.9c-9.4 0-17.1 7.6-17.1 17.1v68.6h273.1V256z" fill="#7B848F"/><path d="M194.5 238.9h-25.6c-9.4 0-17.1 7.6-17.1 17.1v68.6h25.6V256C177.4 246.6 185.1 238.9 194.5 238.9z" fill="#68727E"/><path d="M203 426.7c-3.7 0-7.1-2.5-8.2-6 -1-3.2 0-6.8 2.5-9l26.8-23.4 -26.8-23.4c-3.5-3.1-3.9-8.5-0.8-12 3.1-3.5 8.5-3.9 12-0.8l34.1 29.9c3.8 3.3 3.8 9.5 0 12.8l-34.1 29.9C207 426 205 426.7 203 426.7z" class="c"/><path d="M279.8 426.7h-17.1c-4.7 0-8.5-3.8-8.5-8.5s3.8-8.5 8.5-8.5h17.1c4.7 0 8.5 3.8 8.5 8.5S284.6 426.7 279.8 426.7z" class="c"/><circle cx="254.2" cy="281.6" r="25.6" fill="#4FA9EA"/><circle cx="254.2" cy="281.6" r="17.1" fill="#558CCF"/><circle cx="314" cy="281.6" r="25.6" fill="#FF9785"/><circle cx="314" cy="281.6" r="17.1" fill="#DF7A6E"/><circle cx="373.7" cy="281.6" r="25.6" fill="#FFCA61"/><circle cx="373.7" cy="281.6" r="17.1" fill="#F8A95F"/></svg>
